<svg xmlns="http://www.w3.org/2000/svg" xmlns:xlink="http://www.w3.org/1999/xlink" width="1080" zoomAndPan="magnify" viewBox="0 0 810 1012.49997" height="1350" preserveAspectRatio="xMidYMid meet" version="1.0"><defs><clipPath id="e9bdd6768b"><path d="M 293.890625 55.167969 L 650.832031 55.167969 L 650.832031 412.109375 L 293.890625 412.109375 Z M 293.890625 55.167969 " clip-rule="nonzero"/></clipPath><clipPath id="abc99ec40d"><path d="M 472.359375 55.167969 C 373.792969 55.167969 293.890625 135.070312 293.890625 233.636719 C 293.890625 332.203125 373.792969 412.109375 472.359375 412.109375 C 570.929688 412.109375 650.832031 332.203125 650.832031 233.636719 C 650.832031 135.070312 570.929688 55.167969 472.359375 55.167969 Z M 472.359375 55.167969 " clip-rule="nonzero"/></clipPath><clipPath id="d97ee03575"><path d="M 0.890625 0.167969 L 357.832031 0.167969 L 357.832031 357.109375 L 0.890625 357.109375 Z M 0.890625 0.167969 " clip-rule="nonzero"/></clipPath><clipPath id="023b62e40c"><path d="M 179.359375 0.167969 C 80.792969 0.167969 0.890625 80.070312 0.890625 178.636719 C 0.890625 277.203125 80.792969 357.109375 179.359375 357.109375 C 277.929688 357.109375 357.832031 277.203125 357.832031 178.636719 C 357.832031 80.070312 277.929688 0.167969 179.359375 0.167969 Z M 179.359375 0.167969 " clip-rule="nonzero"/></clipPath><clipPath id="2e934b69d2"><rect x="0" width="358" y="0" height="358"/></clipPath><clipPath id="2ceafd7640"><path d="M 119.957031 352.945312 L 399.660156 352.945312 L 399.660156 632.648438 L 119.957031 632.648438 Z M 119.957031 352.945312 " clip-rule="nonzero"/></clipPath><clipPath id="3d464d1d5f"><path d="M 259.808594 352.945312 C 182.570312 352.945312 119.957031 415.5625 119.957031 492.796875 C 119.957031 570.035156 182.570312 632.648438 259.808594 632.648438 C 337.046875 632.648438 399.660156 570.035156 399.660156 492.796875 C 399.660156 415.5625 337.046875 352.945312 259.808594 352.945312 Z M 259.808594 352.945312 " clip-rule="nonzero"/></clipPath><clipPath id="dac95aba84"><path d="M 0.957031 0.945312 L 280.660156 0.945312 L 280.660156 280.648438 L 0.957031 280.648438 Z M 0.957031 0.945312 " clip-rule="nonzero"/></clipPath><clipPath id="b55e3ac749"><path d="M 140.808594 0.945312 C 63.570312 0.945312 0.957031 63.5625 0.957031 140.796875 C 0.957031 218.035156 63.570312 280.648438 140.808594 280.648438 C 218.046875 280.648438 280.660156 218.035156 280.660156 140.796875 C 280.660156 63.5625 218.046875 0.945312 140.808594 0.945312 Z M 140.808594 0.945312 " clip-rule="nonzero"/></clipPath><clipPath id="101d655a9d"><rect x="0" width="281" y="0" height="281"/></clipPath><clipPath id="3ec49351ac"><path d="M 293.890625 604.917969 L 521.347656 604.917969 L 521.347656 832.375 L 293.890625 832.375 Z M 293.890625 604.917969 " clip-rule="nonzero"/></clipPath><clipPath id="84784474f1"><path d="M 407.617188 604.917969 C 344.808594 604.917969 293.890625 655.835938 293.890625 718.644531 C 293.890625 781.457031 344.808594 832.375 407.617188 832.375 C 470.429688 832.375 521.347656 781.457031 521.347656 718.644531 C 521.347656 655.835938 470.429688 604.917969 407.617188 604.917969 Z M 407.617188 604.917969 " clip-rule="nonzero"/></clipPath><clipPath id="49e1d5530b"><path d="M 0.890625 0.917969 L 228.347656 0.917969 L 228.347656 228.375 L 0.890625 228.375 Z M 0.890625 0.917969 " clip-rule="nonzero"/></clipPath><clipPath id="d0e716b031"><path d="M 114.617188 0.917969 C 51.808594 0.917969 0.890625 51.835938 0.890625 114.644531 C 0.890625 177.457031 51.808594 228.375 114.617188 228.375 C 177.429688 228.375 228.347656 177.457031 228.347656 114.644531 C 228.347656 51.835938 177.429688 0.917969 114.617188 0.917969 Z M 114.617188 0.917969 " clip-rule="nonzero"/></clipPath><clipPath id="96a4782a62"><rect x="0" width="229" y="0" height="229"/></clipPath><clipPath id="c54f6323ef"><path d="M 521.347656 766.300781 L 653.488281 766.300781 L 653.488281 898.445312 L 521.347656 898.445312 Z M 521.347656 766.300781 " clip-rule="nonzero"/></clipPath><clipPath id="9163a522ba"><path d="M 587.417969 766.300781 C 550.925781 766.300781 521.347656 795.882812 521.347656 832.375 C 521.347656 868.863281 550.925781 898.445312 587.417969 898.445312 C 623.90625 898.445312 653.488281 868.863281 653.488281 832.375 C 653.488281 795.882812 623.90625 766.300781 587.417969 766.300781 Z M 587.417969 766.300781 " clip-rule="nonzero"/></clipPath><clipPath id="654c99d211"><path d="M 0.347656 0.300781 L 132.488281 0.300781 L 132.488281 132.445312 L 0.347656 132.445312 Z M 0.347656 0.300781 " clip-rule="nonzero"/></clipPath><clipPath id="a5177d8ce2"><path d="M 66.417969 0.300781 C 29.925781 0.300781 0.347656 29.882812 0.347656 66.375 C 0.347656 102.863281 29.925781 132.445312 66.417969 132.445312 C 102.90625 132.445312 132.488281 102.863281 132.488281 66.375 C 132.488281 29.882812 102.90625 0.300781 66.417969 0.300781 Z M 66.417969 0.300781 " clip-rule="nonzero"/></clipPath><clipPath id="87ca73bbc2"><rect x="0" width="133" y="0" height="133"/></clipPath></defs><g clip-path="url(#e9bdd6768b)"><g clip-path="url(#abc99ec40d)"><g transform="matrix(1, 0, 0, 1, 293, 55)"><g clip-path="url(#2e934b69d2)"><g clip-path="url(#d97ee03575)"><g clip-path="url(#023b62e40c)"><path fill="#7deb73" d="M 0.890625 0.167969 L 357.832031 0.167969 L 357.832031 357.109375 L 0.890625 357.109375 Z M 0.890625 0.167969 " fill-opacity="1" fill-rule="nonzero"/></g></g></g></g></g></g><g clip-path="url(#2ceafd7640)"><g clip-path="url(#3d464d1d5f)"><g transform="matrix(1, 0, 0, 1, 119, 352)"><g clip-path="url(#101d655a9d)"><g clip-path="url(#dac95aba84)"><g clip-path="url(#b55e3ac749)"><path fill="#7deb73" d="M 0.957031 0.945312 L 280.660156 0.945312 L 280.660156 280.648438 L 0.957031 280.648438 Z M 0.957031 0.945312 " fill-opacity="1" fill-rule="nonzero"/></g></g></g></g></g></g><g clip-path="url(#3ec49351ac)"><g clip-path="url(#84784474f1)"><g transform="matrix(1, 0, 0, 1, 293, 604)"><g clip-path="url(#96a4782a62)"><g clip-path="url(#49e1d5530b)"><g clip-path="url(#d0e716b031)"><path fill="#7deb73" d="M 0.890625 0.917969 L 228.347656 0.917969 L 228.347656 228.375 L 0.890625 228.375 Z M 0.890625 0.917969 " fill-opacity="1" fill-rule="nonzero"/></g></g></g></g></g></g><g clip-path="url(#c54f6323ef)"><g clip-path="url(#9163a522ba)"><g transform="matrix(1, 0, 0, 1, 521, 766)"><g clip-path="url(#87ca73bbc2)"><g clip-path="url(#654c99d211)"><g clip-path="url(#a5177d8ce2)"><path fill="#7deb73" d="M 0.347656 0.300781 L 132.488281 0.300781 L 132.488281 132.445312 L 0.347656 132.445312 Z M 0.347656 0.300781 " fill-opacity="1" fill-rule="nonzero"/></g></g></g></g></g></g></svg>