<svg xmlns="http://www.w3.org/2000/svg" width="600" height="315" viewBox="0 0 600 315">
  <defs>
    <linearGradient id="bg" x1="0" y1="0" x2="600" y2="315">
      <stop offset="0" stop-color="#0a0a0f"/>
      <stop offset=".5" stop-color="#0f0f1a"/>
      <stop offset="1" stop-color="#1a0a2e"/>
    </linearGradient>
    <linearGradient id="accent" x1="0" y1="0" x2="1" y2="0">
      <stop offset="0" stop-color="#8b5cf6"/>
      <stop offset="1" stop-color="#6366f1"/>
    </linearGradient>
  </defs>
  <rect width="600" height="315" fill="url(#bg)"/>
  <g opacity=".04" stroke="#fff" stroke-width=".5">
    <line x1="0" y1="63" x2="600" y2="63"/>
    <line x1="0" y1="126" x2="600" y2="126"/>
    <line x1="0" y1="189" x2="600" y2="189"/>
    <line x1="0" y1="252" x2="600" y2="252"/>
    <line x1="120" y1="0" x2="120" y2="315"/>
    <line x1="240" y1="0" x2="240" y2="315"/>
    <line x1="360" y1="0" x2="360" y2="315"/>
    <line x1="480" y1="0" x2="480" y2="315"/>
  </g>
  <circle cx="480" cy="75" r="80" fill="none" stroke="#8b5cf6" stroke-width=".5" opacity=".12"/>
  <circle cx="120" cy="250" r="60" fill="none" stroke="#8b5cf6" stroke-width=".5" opacity=".1"/>
  <g transform="translate(300,60)">
    <line x1="-3" y1="-25" x2="-18" y2="25" stroke="url(#accent)" stroke-width="5" stroke-linecap="round"/>
    <line x1="3" y1="-25" x2="-12" y2="25" stroke="url(#accent)" stroke-width="5" stroke-linecap="round"/>
  </g>
  <text x="300" y="135" text-anchor="middle" fill="#fff" font-family="system-ui,sans-serif" font-size="36" font-weight="700" letter-spacing="1">Skillber</text>
  <text x="300" y="168" text-anchor="middle" fill="#a78bfa" font-family="system-ui,sans-serif" font-size="13" font-weight="500" letter-spacing="3" opacity=".9">BUILD IN-DEMAND TECH SKILLS</text>
  <line x1="220" y1="188" x2="380" y2="188" stroke="url(#accent)" stroke-width="1.5" opacity=".5"/>
  <text x="300" y="220" text-anchor="middle" fill="#9ca3af" font-family="system-ui,sans-serif" font-size="10" letter-spacing="1.5" opacity=".75">
    CYBERSECURITY  ·  CLOUD  ·  FULL STACK  ·  DATA SCIENCE
  </text>
  <text x="300" y="238" text-anchor="middle" fill="#9ca3af" font-family="system-ui,sans-serif" font-size="10" letter-spacing="1.5" opacity=".75">
    IAM/PAM  ·  DEVOPS  ·  MOBILE  ·  PYTHON  ·  EHR
  </text>
  <rect x="250" y="265" width="100" height="2" rx="1" fill="url(#accent)" opacity=".35"/>
</svg>
